# xmcd
#
# Track frame offsets:
#  150
#  16162
#  30789
#  46149
#  56436
#  67276
#  80797
#  93988
#  109245
#  118473
#  131428
#  143211
#  155390
#  173855
#
# Disc length: 2498 seconds
#
# Revision: 0
# Processed by: cddbd v1.5.2PL0 Copyright (c) Steve Scherf et al.
# Submitted via: AltoMP3_Maker 3.0
#
DISCID=bb09c00e
DTITLE=FLATS AND SHARPS - KINGS OF MY MIND
DYEAR=1900
DGENRE=
TTITLE0=My Life
TTITLE1=Boot
TTITLE2=I Smile (featuring emaé)
TTITLE3=Will You Love Me Tomorrow
TTITLE4=Ninety-Nine Years and One Dark Day
TTITLE5=Someday
TTITLE6=It's OK My Love
TTITLE7=Caleb Meyer
TTITLE8=Tieran Kerry
TTITLE9=Isabelle
TTITLE10=Got You On My Mind
TTITLE11=Fly
TTITLE12=Darkest Shade of Light
TTITLE13=King of My Mind
EXTD=
EXTT0=
EXTT1=
EXTT2=
EXTT3=
EXTT4=
EXTT5=
EXTT6=
EXTT7=
EXTT8=
EXTT9=
EXTT10=
EXTT11=
EXTT12=
EXTT13=
PLAYORDER=
